<svg version="1.1" viewBox="0.0 0.0 332.257217847769 149.35433070866142" fill="none" stroke="none" stroke-linecap="square" stroke-miterlimit="10" xmlns:xlink="http://www.w3.org/1999/xlink" xmlns="http://www.w3.org/2000/svg"><clipPath id="p.0"><path d="m0 0l332.25723 0l0 149.35432l-332.25723 0l0 -149.35432z" clip-rule="nonzero"/></clipPath><g clip-path="url(#p.0)"><path fill="#000000" fill-opacity="0.0" d="m0 0l332.25723 0l0 149.35432l-332.25723 0z" fill-rule="evenodd"/><path fill="#ffffff" fill-opacity="0.6" d="m-0.1312336 -24.131233l353.79526 0l0 200.06299l-353.79526 0z" fill-rule="evenodd"/><path fill="#000000" d="m323.7101 70.34121l0 0c0 -14.829063 -12.021332 -26.850395 -26.850403 -26.850395l0 0c-7.121155 0 -13.950653 2.8288727 -18.986084 7.864296c-5.035431 5.035427 -7.8642883 11.864929 -7.8642883 18.9861l0 0c0 14.829063 12.021332 26.850395 26.850372 26.850395l0 0c14.829071 0 26.850403 -12.021332 26.850403 -26.850395z" fill-rule="evenodd"/><path stroke="#000000" stroke-width="1.0" stroke-linejoin="round" stroke-linecap="butt" d="m323.7101 70.34121l0 0c0 -14.829063 -12.021332 -26.850395 -26.850403 -26.850395l0 0c-7.121155 0 -13.950653 2.8288727 -18.986084 7.864296c-5.035431 5.035427 -7.8642883 11.864929 -7.8642883 18.9861l0 0c0 14.829063 12.021332 26.850395 26.850372 26.850395l0 0c14.829071 0 26.850403 -12.021332 26.850403 -26.850395z" fill-rule="evenodd"/><path fill="#ffffff" d="m288.14142 74.17308l4.125 -0.40625q0.375 2.078125 1.5 3.0625q1.140625 0.96875 3.078125 0.96875q2.046875 0 3.078125 -0.859375q1.046875 -0.875 1.046875 -2.03125q0 -0.75 -0.4375 -1.265625q-0.4375 -0.53125 -1.53125 -0.921875q-0.734375 -0.25 -3.390625 -0.90625q-3.40625 -0.84375 -4.78125 -2.078125q-1.9375 -1.734375 -1.9375 -4.234375q0 -1.59375 0.90625 -2.984375q0.921875 -1.40625 2.625 -2.140625q1.71875 -0.734375 4.140625 -0.734375q3.953125 0 5.9375 1.734375q2.0 1.734375 2.109375 4.625l-4.234375 0.1875q-0.28125 -1.609375 -1.171875 -2.3125q-0.890625 -0.71875 -2.6875 -0.71875q-1.84375 0 -2.890625 0.765625q-0.671875 0.484375 -0.671875 1.296875q0 0.75 0.625 1.28125q0.796875 0.671875 3.890625 1.40625q3.09375 0.71875 4.578125 1.5q1.484375 0.78125 2.3125 2.140625q0.84375 1.34375 0.84375 3.34375q0 1.796875 -1.0 3.375q-1.0 1.578125 -2.84375 2.34375q-1.828125 0.765625 -4.5625 0.765625q-3.96875 0 -6.109375 -1.84375q-2.140625 -1.84375 -2.546875 -5.359375z" fill-rule="nonzero"/><path fill="#000000" fill-opacity="0.0" d="m277.87363 51.35511l-15.370087 -26.23622" fill-rule="evenodd"/><path stroke="#000000" stroke-width="8.0" stroke-linejoin="round" stroke-linecap="butt" d="m277.87363 51.35511l-15.370087 -26.23622" fill-rule="evenodd"/><path fill="#000000" fill-opacity="0.0" d="m277.87363 89.11889l-15.370087 26.236221" fill-rule="evenodd"/><path stroke="#000000" stroke-width="8.0" stroke-linejoin="round" stroke-linecap="butt" d="m277.87363 89.11889l-15.370087 26.236221" fill-rule="evenodd"/><path fill="#000000" fill-opacity="0.0" d="m262.84525 11.535433l32.251953 0l0 32.314964l-32.251953 0z" fill-rule="evenodd"/><path fill="#000000" d="m272.689 30.775433l0 -7.625l3.375 0q1.015625 0 1.546875 0.203125q0.53125 0.203125 0.84375 0.734375q0.328125 0.515625 0.328125 1.140625q0 0.8125 -0.53125 1.375q-0.515625 0.546875 -1.625 0.703125q0.40625 0.1875 0.609375 0.375q0.453125 0.40625 0.84375 1.015625l1.328125 2.078125l-1.265625 0l-1.015625 -1.59375q-0.4375 -0.6875 -0.734375 -1.046875q-0.28125 -0.359375 -0.515625 -0.5q-0.21875 -0.15625 -0.453125 -0.203125q-0.171875 -0.046875 -0.5625 -0.046875l-1.171875 0l0 3.390625l-1.0 0zm1.0 -4.265625l2.171875 0q0.6875 0 1.078125 -0.140625q0.390625 -0.140625 0.59375 -0.453125q0.203125 -0.3125 0.203125 -0.6875q0 -0.546875 -0.390625 -0.890625q-0.390625 -0.34375 -1.234375 -0.34375l-2.421875 0l0 2.515625z" fill-rule="nonzero"/><path fill="#000000" fill-opacity="0.0" d="m262.84525 96.81589l32.251953 0l0 32.314957l-32.251953 0z" fill-rule="evenodd"/><path fill="#000000" d="m272.6265 116.055885l0 -7.625l1.015625 0l0 6.71875l3.75 0l0 0.90625l-4.765625 0z" fill-rule="nonzero"/><path fill="#000000" d="m4.805581 70.34121l0 0c0 -14.829063 12.021331 -26.850395 26.850395 -26.850395l0 0c7.121166 0 13.950668 2.8288727 18.986095 7.864296c5.0354233 5.035427 7.864296 11.864929 7.864296 18.9861l0 0c0 14.829063 -12.021328 26.850395 -26.850391 26.850395l0 0c-14.829063 0 -26.850395 -12.021332 -26.850395 -26.850395z" fill-rule="evenodd"/><path stroke="#000000" stroke-width="1.0" stroke-linejoin="round" stroke-linecap="butt" d="m4.805581 70.34121l0 0c0 -14.829063 12.021331 -26.850395 26.850395 -26.850395l0 0c7.121166 0 13.950668 2.8288727 18.986095 7.864296c5.0354233 5.035427 7.864296 11.864929 7.864296 18.9861l0 0c0 14.829063 -12.021328 26.850395 -26.850391 26.850395l0 0c-14.829063 0 -26.850395 -12.021332 -26.850395 -26.850395z" fill-rule="evenodd"/><path fill="#ffffff" d="m29.557953 81.001205l0 -17.4375l-6.234375 0l0 -3.5625l16.6875 0l0 3.5625l-6.21875 0l0 17.4375l-4.234375 0z" fill-rule="nonzero"/><path fill="#000000" fill-opacity="0.0" d="m50.64207 51.35511l15.370075 -26.23622" fill-rule="evenodd"/><path stroke="#000000" stroke-width="8.0" stroke-linejoin="round" stroke-linecap="butt" d="m50.64207 51.35511l15.370075 -26.23622" fill-rule="evenodd"/><path fill="#000000" fill-opacity="0.0" d="m50.64207 89.11889l15.370075 26.236221" fill-rule="evenodd"/><path stroke="#000000" stroke-width="8.0" stroke-linejoin="round" stroke-linecap="butt" d="m50.64207 89.11889l15.370075 26.236221" fill-rule="evenodd"/><path fill="#000000" fill-opacity="0.0" d="m71.6308 11.535433l-32.25197 0l0 32.314964l32.25197 0z" fill-rule="evenodd"/><path fill="#000000" d="m49.16008 30.775433l0 -7.625l1.015625 0l0 6.71875l3.75 0l0 0.90625l-4.765625 0z" fill-rule="nonzero"/><path fill="#000000" fill-opacity="0.0" d="m71.6308 96.81589l-32.25197 0l0 32.314957l32.25197 0z" fill-rule="evenodd"/><path fill="#000000" d="m49.22258 116.055885l0 -7.625l3.375 0q1.015625 0 1.546875 0.203125q0.53125 0.203125 0.84375 0.734375q0.328125 0.515625 0.328125 1.140625q0 0.8125 -0.53125 1.375q-0.515625 0.546875 -1.625 0.703125q0.40625 0.1875 0.609375 0.375q0.453125 0.40625 0.84375 1.015625l1.328125 2.078125l-1.265625 0l-1.015625 -1.59375q-0.4375 -0.6875 -0.734375 -1.046875q-0.28125 -0.359375 -0.515625 -0.5q-0.21875 -0.15625 -0.453125 -0.203125q-0.171875 -0.046875 -0.5625 -0.046875l-1.171875 0l0 3.390625l-1.0 0zm1.0 -4.265625l2.171875 0q0.6875 0 1.078125 -0.140625q0.390625 -0.140625 0.59375 -0.453125q0.203125 -0.3125 0.203125 -0.6875q0 -0.546875 -0.390625 -0.890625q-0.390625 -0.34375 -1.234375 -0.34375l-2.421875 0l0 2.515625z" fill-rule="nonzero"/><path fill="#000000" fill-opacity="0.0" d="m249.6416 98.92795c-14.725342 4.2855606 -59.700592 21.1484 -88.352036 25.713356c-28.651459 4.5649643 -69.63056 1.3969955 -83.55667 1.6763916" fill-rule="evenodd"/><path stroke="#cc0000" stroke-width="4.0" stroke-linejoin="round" stroke-linecap="butt" d="m249.64162 98.927956c-14.725342 4.285553 -59.700607 21.1484 -88.35205 25.713356c-14.325729 2.2824707 -31.733368 2.6317139 -47.30034 2.4452744c-7.7834854 -0.0932312 -15.106804 -0.32037354 -21.35463 -0.506752l-1.1952438 -0.034568787" fill-rule="evenodd"/><path fill="#cc0000" stroke="#cc0000" stroke-width="4.0" stroke-linecap="butt" d="m91.439354 126.545265l4.5723877 -4.4230347l-12.432045 4.2925415l12.282692 4.7028885z" fill-rule="evenodd"/><path fill="#000000" fill-opacity="0.0" d="m76.71391 30.141733c14.957565 6.7180843 60.84996 23.442396 89.74541 40.308517c28.895447 16.86612 69.68941 50.740173 83.62729 60.888206" fill-rule="evenodd"/><path stroke="#cc0000" stroke-width="4.0" stroke-linejoin="round" stroke-linecap="butt" d="m76.71391 30.141733c14.957565 6.7180843 60.849945 23.442396 89.74541 40.308517c14.447708 8.43306 31.870071 21.118103 47.42273 32.963387c7.7763367 5.922638 15.08522 11.635338 21.321182 16.50164l3.9859314 3.1066666" fill-rule="evenodd"/><path fill="#cc0000" stroke="#cc0000" stroke-width="4.0" stroke-linecap="butt" d="m239.18916 123.02194l-6.3049774 0.8469238l12.553879 3.9219894l-7.09581 -11.073891z" fill-rule="evenodd"/><path fill="#000000" fill-opacity="0.0" d="m250.44215 43.357132c-14.912613 -3.5763664 -60.640305 -18.268618 -89.47574 -21.458197c-28.835434 -3.189581 -69.61402 1.9339333 -83.53683 2.3207188" fill-rule="evenodd"/><path stroke="#cc0000" stroke-width="4.0" stroke-linejoin="round" stroke-linecap="butt" d="m250.44215 43.357136c-14.912628 -3.5763664 -60.64032 -18.268621 -89.47574 -21.4582c-14.417709 -1.5947914 -31.821213 -1.111309 -47.36065 -0.1807766c-7.7697144 0.46526337 -15.07341 1.0422878 -21.304855 1.527174l-1.1914215 0.091617584" fill-rule="evenodd"/><path fill="#cc0000" stroke="#cc0000" stroke-width="4.0" stroke-linecap="butt" d="m91.10949 23.33695l4.199341 -4.778654l-12.04377 5.2848206l12.623085 3.6931763z" fill-rule="evenodd"/><path fill="#000000" fill-opacity="0.0" d="m76.71391 116.23622c14.957565 -6.7180862 60.84996 -23.442398 89.74541 -40.308517c28.895447 -16.866123 69.68941 -50.740173 83.62729 -60.888206" fill-rule="evenodd"/><path stroke="#cc0000" stroke-width="4.0" stroke-linejoin="round" stroke-linecap="butt" d="m76.71391 116.23622c14.957565 -6.7180862 60.849945 -23.442398 89.74541 -40.308517c14.447708 -8.43306 31.870071 -21.118107 47.42273 -32.963387c7.7763367 -5.9226418 15.08522 -11.635342 21.321182 -16.501637l3.9859314 -3.1066704" fill-rule="evenodd"/><path fill="#cc0000" stroke="#cc0000" stroke-width="4.0" stroke-linecap="butt" d="m239.18916 23.35601l-0.84690857 6.3049774l7.09581 -11.073893l-12.553879 3.9219952z" fill-rule="evenodd"/><path fill="#000000" fill-opacity="0.0" d="m87.238846 76.908134l32.25197 0l0 32.314964l-32.25197 0z" fill-rule="evenodd"/><path fill="#000000" d="m98.738846 98.39814q-0.78125 -0.984375 -1.328125 -2.296875q-0.53125 -1.3125 -0.53125 -2.71875q0 -1.234375 0.40625 -2.375q0.46875 -1.3125 1.453125 -2.625l0.65625 0q-0.625 1.09375 -0.828125 1.546875q-0.3125 0.71875 -0.5 1.5q-0.21875 0.984375 -0.21875 1.96875q0 2.5 1.546875 5.0l-0.65625 0zm5.0173645 -2.25l-0.9375 0l0 -5.96875q-0.34375 0.328125 -0.890625 0.65625q-0.546875 0.3125 -0.984375 0.46875l0 -0.90625q0.796875 -0.359375 1.375 -0.890625q0.59375 -0.53125 0.828125 -1.015625l0.609375 0l0 7.65625zm3.2702484 2.25l-0.671875 0q1.5625 -2.5 1.5625 -5.0q0 -0.984375 -0.21875 -1.953125q-0.1875 -0.78125 -0.5 -1.5q-0.203125 -0.46875 -0.84375 -1.5625l0.671875 0q0.984375 1.3125 1.453125 2.625q0.390625 1.140625 0.390625 2.375q0 1.40625 -0.53125 2.71875q-0.53125 1.3125 -1.3125 2.296875z" fill-rule="nonzero"/><path fill="#000000" fill-opacity="0.0" d="m191.23885 4.9081364l32.25197 0l0 32.314964l-32.25197 0z" fill-rule="evenodd"/><path fill="#000000" d="m202.73885 26.398136q-0.78125 -0.984375 -1.328125 -2.296875q-0.53125 -1.3125 -0.53125 -2.71875q0 -1.234375 0.40625 -2.375q0.46875 -1.3125 1.453125 -2.625l0.65625 0q-0.625 1.09375 -0.828125 1.546875q-0.3125 0.71875 -0.5 1.5q-0.21875 0.984375 -0.21875 1.96875q0 2.5 1.546875 5.0l-0.65625 0zm6.4079895 -3.15625l0 0.90625l-5.03125 0q-0.015625 -0.34375 0.109375 -0.65625q0.1875 -0.515625 0.609375 -1.015625q0.421875 -0.5 1.234375 -1.140625q1.234375 -1.03125 1.671875 -1.625q0.4375 -0.59375 0.4375 -1.125q0 -0.5625 -0.40625 -0.9375q-0.390625 -0.390625 -1.03125 -0.390625q-0.671875 0 -1.078125 0.40625q-0.40625 0.40625 -0.40625 1.125l-0.96875 -0.09375q0.09375 -1.078125 0.734375 -1.640625q0.65625 -0.5625 1.734375 -0.5625q1.109375 0 1.75 0.609375q0.640625 0.609375 0.640625 1.5q0 0.46875 -0.1875 0.90625q-0.1875 0.4375 -0.625 0.9375q-0.4375 0.484375 -1.453125 1.328125q-0.828125 0.71875 -1.078125 0.96875q-0.234375 0.25 -0.390625 0.5l3.734375 0zm1.8796234 3.15625l-0.671875 0q1.5625 -2.5 1.5625 -5.0q0 -0.984375 -0.21875 -1.953125q-0.1875 -0.78125 -0.5 -1.5q-0.203125 -0.46875 -0.84375 -1.5625l0.671875 0q0.984375 1.3125 1.453125 2.625q0.390625 1.140625 0.390625 2.375q0 1.40625 -0.53125 2.71875q-0.53125 1.3125 -1.3125 2.296875z" fill-rule="nonzero"/><path fill="#000000" fill-opacity="0.0" d="m87.238846 36.90814l32.25197 0l0 32.31496l-32.25197 0z" fill-rule="evenodd"/><path fill="#000000" d="m98.738846 58.398136q-0.78125 -0.984375 -1.328125 -2.296875q-0.53125 -1.3125 -0.53125 -2.71875q0 -1.234375 0.40625 -2.375q0.46875 -1.3125 1.453125 -2.625l0.65625 0q-0.625 1.09375 -0.828125 1.546875q-0.3125 0.71875 -0.5 1.5q-0.21875 0.984375 -0.21875 1.96875q0 2.5 1.546875 5.0l-0.65625 0zm1.5017395 -4.265625l0.9375 -0.125q0.15625 0.796875 0.546875 1.15625q0.390625 0.34375 0.9375 0.34375q0.65625 0 1.109375 -0.453125q0.46875 -0.46875 0.46875 -1.140625q0 -0.640625 -0.421875 -1.0625q-0.421875 -0.421875 -1.078125 -0.421875q-0.265625 0 -0.65625 0.109375l0.109375 -0.828125q0.09375 0.015625 0.140625 0.015625q0.59375 0 1.078125 -0.3125q0.484375 -0.3125 0.484375 -0.96875q0 -0.515625 -0.359375 -0.84375q-0.34375 -0.34375 -0.890625 -0.34375q-0.546875 0 -0.921875 0.34375q-0.359375 0.34375 -0.453125 1.03125l-0.9375 -0.171875q0.171875 -0.9375 0.78125 -1.453125q0.609375 -0.515625 1.5 -0.515625q0.625 0 1.15625 0.265625q0.53125 0.265625 0.796875 0.734375q0.28125 0.453125 0.28125 0.984375q0 0.484375 -0.265625 0.890625q-0.265625 0.40625 -0.78125 0.65625q0.671875 0.15625 1.046875 0.65625q0.375 0.484375 0.375 1.21875q0 1.0 -0.734375 1.703125q-0.71875 0.6875 -1.828125 0.6875q-1.0 0 -1.671875 -0.59375q-0.65625 -0.609375 -0.75 -1.5625zm6.7858734 4.265625l-0.671875 0q1.5625 -2.5 1.5625 -5.0q0 -0.984375 -0.21875 -1.953125q-0.1875 -0.78125 -0.5 -1.5q-0.203125 -0.46875 -0.84375 -1.5625l0.671875 0q0.984375 1.3125 1.453125 2.625q0.390625 1.140625 0.390625 2.375q0 1.40625 -0.53125 2.71875q-0.53125 1.3125 -1.3125 2.296875z" fill-rule="nonzero"/><path fill="#000000" fill-opacity="0.0" d="m191.23885 107.06301l32.25197 0l0 32.314964l-32.25197 0z" fill-rule="evenodd"/><path fill="#000000" d="m202.73885 128.55301q-0.78125 -0.984375 -1.328125 -2.296875q-0.53125 -1.3125 -0.53125 -2.71875q0 -1.234375 0.40625 -2.375q0.46875 -1.3125 1.453125 -2.625l0.65625 0q-0.625 1.09375 -0.828125 1.546875q-0.3125 0.71875 -0.5 1.5q-0.21875 0.984375 -0.21875 1.96875q0 2.5 1.546875 5.0l-0.65625 0zm4.4861145 -2.25l0 -1.828125l-3.296875 0l0 -0.859375l3.46875 -4.9375l0.765625 0l0 4.9375l1.03125 0l0 0.859375l-1.03125 0l0 1.828125l-0.9375 0zm0 -2.6875l0 -3.4375l-2.375 3.4375l2.375 0zm3.8014984 4.9375l-0.671875 0q1.5625 -2.5 1.5625 -5.0q0 -0.984375 -0.21875 -1.953125q-0.1875 -0.78125 -0.5 -1.5q-0.203125 -0.46875 -0.84375 -1.5625l0.671875 0q0.984375 1.3125 1.453125 2.625q0.390625 1.140625 0.390625 2.375q0 1.40625 -0.53125 2.71875q-0.53125 1.3125 -1.3125 2.296875z" fill-rule="nonzero"/></g></svg>