<svg version="1.1" viewBox="0.0 0.0 332.257217847769 149.35433070866142" fill="none" stroke="none" stroke-linecap="square" stroke-miterlimit="10" xmlns:xlink="http://www.w3.org/1999/xlink" xmlns="http://www.w3.org/2000/svg"><clipPath id="p.0"><path d="m0 0l332.25723 0l0 149.35432l-332.25723 0l0 -149.35432z" clip-rule="nonzero"/></clipPath><g clip-path="url(#p.0)"><path fill="#000000" fill-opacity="0.0" d="m0 0l332.25723 0l0 149.35432l-332.25723 0z" fill-rule="evenodd"/><path fill="#ffffff" fill-opacity="0.6" d="m0.7191601 -25.35433l353.7953 0l0 200.06299l-353.7953 0z" fill-rule="evenodd"/><path fill="#000000" d="m323.7101 70.34121l0 0c0 -14.829063 -12.021332 -26.850395 -26.850403 -26.850395l0 0c-7.121155 0 -13.950653 2.8288727 -18.986084 7.864296c-5.035431 5.035427 -7.8642883 11.864929 -7.8642883 18.9861l0 0c0 14.829063 12.021332 26.850395 26.850372 26.850395l0 0c14.829071 0 26.850403 -12.021332 26.850403 -26.850395z" fill-rule="evenodd"/><path stroke="#000000" stroke-width="1.0" stroke-linejoin="round" stroke-linecap="butt" d="m323.7101 70.34121l0 0c0 -14.829063 -12.021332 -26.850395 -26.850403 -26.850395l0 0c-7.121155 0 -13.950653 2.8288727 -18.986084 7.864296c-5.035431 5.035427 -7.8642883 11.864929 -7.8642883 18.9861l0 0c0 14.829063 12.021332 26.850395 26.850372 26.850395l0 0c14.829071 0 26.850403 -12.021332 26.850403 -26.850395z" fill-rule="evenodd"/><path fill="#ffffff" d="m288.14142 74.17308l4.125 -0.40625q0.375 2.078125 1.5 3.0625q1.140625 0.96875 3.078125 0.96875q2.046875 0 3.078125 -0.859375q1.046875 -0.875 1.046875 -2.03125q0 -0.75 -0.4375 -1.265625q-0.4375 -0.53125 -1.53125 -0.921875q-0.734375 -0.25 -3.390625 -0.90625q-3.40625 -0.84375 -4.78125 -2.078125q-1.9375 -1.734375 -1.9375 -4.234375q0 -1.59375 0.90625 -2.984375q0.921875 -1.40625 2.625 -2.140625q1.71875 -0.734375 4.140625 -0.734375q3.953125 0 5.9375 1.734375q2.0 1.734375 2.109375 4.625l-4.234375 0.1875q-0.28125 -1.609375 -1.171875 -2.3125q-0.890625 -0.71875 -2.6875 -0.71875q-1.84375 0 -2.890625 0.765625q-0.671875 0.484375 -0.671875 1.296875q0 0.75 0.625 1.28125q0.796875 0.671875 3.890625 1.40625q3.09375 0.71875 4.578125 1.5q1.484375 0.78125 2.3125 2.140625q0.84375 1.34375 0.84375 3.34375q0 1.796875 -1.0 3.375q-1.0 1.578125 -2.84375 2.34375q-1.828125 0.765625 -4.5625 0.765625q-3.96875 0 -6.109375 -1.84375q-2.140625 -1.84375 -2.546875 -5.359375z" fill-rule="nonzero"/><path fill="#000000" fill-opacity="0.0" d="m277.87363 51.35511l-15.370087 -26.23622" fill-rule="evenodd"/><path stroke="#000000" stroke-width="8.0" stroke-linejoin="round" stroke-linecap="butt" d="m277.87363 51.35511l-15.370087 -26.23622" fill-rule="evenodd"/><path fill="#000000" fill-opacity="0.0" d="m277.87363 89.11889l-15.370087 26.236221" fill-rule="evenodd"/><path stroke="#000000" stroke-width="8.0" stroke-linejoin="round" stroke-linecap="butt" d="m277.87363 89.11889l-15.370087 26.236221" fill-rule="evenodd"/><path fill="#000000" fill-opacity="0.0" d="m262.84525 11.535433l32.251953 0l0 32.314964l-32.251953 0z" fill-rule="evenodd"/><path fill="#000000" d="m272.689 30.775433l0 -7.625l3.375 0q1.015625 0 1.546875 0.203125q0.53125 0.203125 0.84375 0.734375q0.328125 0.515625 0.328125 1.140625q0 0.8125 -0.53125 1.375q-0.515625 0.546875 -1.625 0.703125q0.40625 0.1875 0.609375 0.375q0.453125 0.40625 0.84375 1.015625l1.328125 2.078125l-1.265625 0l-1.015625 -1.59375q-0.4375 -0.6875 -0.734375 -1.046875q-0.28125 -0.359375 -0.515625 -0.5q-0.21875 -0.15625 -0.453125 -0.203125q-0.171875 -0.046875 -0.5625 -0.046875l-1.171875 0l0 3.390625l-1.0 0zm1.0 -4.265625l2.171875 0q0.6875 0 1.078125 -0.140625q0.390625 -0.140625 0.59375 -0.453125q0.203125 -0.3125 0.203125 -0.6875q0 -0.546875 -0.390625 -0.890625q-0.390625 -0.34375 -1.234375 -0.34375l-2.421875 0l0 2.515625z" fill-rule="nonzero"/><path fill="#000000" fill-opacity="0.0" d="m262.84525 96.81589l32.251953 0l0 32.314957l-32.251953 0z" fill-rule="evenodd"/><path fill="#000000" d="m272.6265 116.055885l0 -7.625l1.015625 0l0 6.71875l3.75 0l0 0.90625l-4.765625 0z" fill-rule="nonzero"/><path fill="#000000" d="m4.805581 70.34121l0 0c0 -14.829063 12.021331 -26.850395 26.850395 -26.850395l0 0c7.121166 0 13.950668 2.8288727 18.986095 7.864296c5.0354233 5.035427 7.864296 11.864929 7.864296 18.9861l0 0c0 14.829063 -12.021328 26.850395 -26.850391 26.850395l0 0c-14.829063 0 -26.850395 -12.021332 -26.850395 -26.850395z" fill-rule="evenodd"/><path stroke="#000000" stroke-width="1.0" stroke-linejoin="round" stroke-linecap="butt" d="m4.805581 70.34121l0 0c0 -14.829063 12.021331 -26.850395 26.850395 -26.850395l0 0c7.121166 0 13.950668 2.8288727 18.986095 7.864296c5.0354233 5.035427 7.864296 11.864929 7.864296 18.9861l0 0c0 14.829063 -12.021328 26.850395 -26.850391 26.850395l0 0c-14.829063 0 -26.850395 -12.021332 -26.850395 -26.850395z" fill-rule="evenodd"/><path fill="#ffffff" d="m29.557953 81.001205l0 -17.4375l-6.234375 0l0 -3.5625l16.6875 0l0 3.5625l-6.21875 0l0 17.4375l-4.234375 0z" fill-rule="nonzero"/><path fill="#000000" fill-opacity="0.0" d="m50.64207 51.35511l15.370075 -26.23622" fill-rule="evenodd"/><path stroke="#000000" stroke-width="8.0" stroke-linejoin="round" stroke-linecap="butt" d="m50.64207 51.35511l15.370075 -26.23622" fill-rule="evenodd"/><path fill="#000000" fill-opacity="0.0" d="m50.64207 89.11889l15.370075 26.236221" fill-rule="evenodd"/><path stroke="#000000" stroke-width="8.0" stroke-linejoin="round" stroke-linecap="butt" d="m50.64207 89.11889l15.370075 26.236221" fill-rule="evenodd"/><path fill="#000000" fill-opacity="0.0" d="m71.6308 11.535433l-32.25197 0l0 32.314964l32.25197 0z" fill-rule="evenodd"/><path fill="#000000" d="m49.16008 30.775433l0 -7.625l1.015625 0l0 6.71875l3.75 0l0 0.90625l-4.765625 0z" fill-rule="nonzero"/><path fill="#000000" fill-opacity="0.0" d="m71.6308 96.81589l-32.25197 0l0 32.314957l32.25197 0z" fill-rule="evenodd"/><path fill="#000000" d="m49.22258 116.055885l0 -7.625l3.375 0q1.015625 0 1.546875 0.203125q0.53125 0.203125 0.84375 0.734375q0.328125 0.515625 0.328125 1.140625q0 0.8125 -0.53125 1.375q-0.515625 0.546875 -1.625 0.703125q0.40625 0.1875 0.609375 0.375q0.453125 0.40625 0.84375 1.015625l1.328125 2.078125l-1.265625 0l-1.015625 -1.59375q-0.4375 -0.6875 -0.734375 -1.046875q-0.28125 -0.359375 -0.515625 -0.5q-0.21875 -0.15625 -0.453125 -0.203125q-0.171875 -0.046875 -0.5625 -0.046875l-1.171875 0l0 3.390625l-1.0 0zm1.0 -4.265625l2.171875 0q0.6875 0 1.078125 -0.140625q0.390625 -0.140625 0.59375 -0.453125q0.203125 -0.3125 0.203125 -0.6875q0 -0.546875 -0.390625 -0.890625q-0.390625 -0.34375 -1.234375 -0.34375l-2.421875 0l0 2.515625z" fill-rule="nonzero"/><path fill="#000000" fill-opacity="0.0" d="m249.6416 104.88059c-14.725342 4.2855606 -59.700592 21.1484 -88.352036 25.713356c-28.651459 4.5649567 -69.63056 1.3969879 -83.55667 1.6763916" fill-rule="evenodd"/><path stroke="#cc0000" stroke-width="4.0" stroke-linejoin="round" stroke-linecap="butt" d="m249.64162 104.880585c-14.725342 4.285568 -59.700607 21.148407 -88.35205 25.713364c-14.325729 2.2824707 -31.733368 2.6317291 -47.30034 2.445282c-7.7834854 -0.0932312 -15.106804 -0.32037354 -21.35463 -0.5067444l-1.1952438 -0.034576416" fill-rule="evenodd"/><path fill="#cc0000" stroke="#cc0000" stroke-width="4.0" stroke-linecap="butt" d="m91.439354 132.49791l4.5723877 -4.4230347l-12.432045 4.2925415l12.282692 4.702881z" fill-rule="evenodd"/><path fill="#000000" fill-opacity="0.0" d="m250.44215 35.357132c-14.912613 -3.5763645 -60.640305 -18.268618 -89.47574 -21.458199c-28.835434 -3.18958 -69.61402 1.9339333 -83.53683 2.3207197" fill-rule="evenodd"/><path stroke="#cc0000" stroke-width="4.0" stroke-linejoin="round" stroke-linecap="butt" d="m250.44215 35.357136c-14.912628 -3.5763683 -60.64032 -18.268621 -89.47574 -21.458202c-14.417709 -1.5947905 -31.821213 -1.1113062 -47.36065 -0.1807766c-7.7697144 0.46526432 -15.07341 1.0422897 -21.304855 1.527175l-1.1914215 0.09161854" fill-rule="evenodd"/><path fill="#cc0000" stroke="#cc0000" stroke-width="4.0" stroke-linecap="butt" d="m91.10949 15.33695l4.199341 -4.778654l-12.04377 5.2848206l12.623085 3.6931782z" fill-rule="evenodd"/><path fill="#000000" fill-opacity="0.0" d="m80.4279 83.062996l49.921265 0l0 32.314957l-49.921265 0z" fill-rule="evenodd"/><path fill="#000000" d="m93.38448 104.55299q-0.78125 -0.984375 -1.328125 -2.296875q-0.53125 -1.3125 -0.53125 -2.71875q0 -1.234375 0.40625 -2.375q0.46875 -1.3125 1.453125 -2.625l0.65625 0q-0.625 1.09375 -0.828125 1.546875q-0.3125 0.71875 -0.5 1.5q-0.21875 0.984375 -0.21875 1.96875q0 2.5 1.546875 5.0l-0.65625 0zm5.0173645 -2.25l-0.9375 0l0 -5.96875q-0.34375 0.328125 -0.890625 0.65625q-0.546875 0.3125 -0.984375 0.46875l0 -0.90625q0.796875 -0.359375 1.375 -0.890625q0.59375 -0.53125 0.828125 -1.015625l0.609375 0l0 7.65625zm3.2702484 2.25l-0.671875 0q1.5625 -2.5 1.5625 -5.0q0 -0.984375 -0.21875 -1.953125q-0.1875 -0.78125 -0.5 -1.5q-0.203125 -0.46875 -0.84375 -1.5625l0.671875 0q0.984375 1.3125 1.453125 2.625q0.390625 1.140625 0.390625 2.375q0 1.40625 -0.53125 2.71875q-0.53125 1.3125 -1.3125 2.296875zm7.696762 0q-0.78125 -0.984375 -1.328125 -2.296875q-0.53125 -1.3125 -0.53125 -2.71875q0 -1.234375 0.40625 -2.375q0.46875 -1.3125 1.453125 -2.625l0.65625 0q-0.625 1.09375 -0.828125 1.546875q-0.3125 0.71875 -0.5 1.5q-0.21875 0.984375 -0.21875 1.96875q0 2.5 1.546875 5.0l-0.65625 0zm1.5017395 -4.265625l0.9375 -0.125q0.15625 0.796875 0.546875 1.15625q0.390625 0.34375 0.9375 0.34375q0.65625 0 1.109375 -0.453125q0.46875 -0.46875 0.46875 -1.140625q0 -0.640625 -0.421875 -1.0625q-0.421875 -0.421875 -1.078125 -0.421875q-0.265625 0 -0.65625 0.109375l0.109375 -0.828125q0.09375 0.015625 0.140625 0.015625q0.59375 0 1.078125 -0.3125q0.484375 -0.3125 0.484375 -0.96875q0 -0.515625 -0.359375 -0.84375q-0.34375 -0.34375 -0.890625 -0.34375q-0.546875 0 -0.921875 0.34375q-0.359375 0.34375 -0.453125 1.03125l-0.9375 -0.171875q0.171875 -0.9375 0.78125 -1.453125q0.609375 -0.515625 1.5 -0.515625q0.625 0 1.15625 0.265625q0.53125 0.265625 0.796875 0.734375q0.28125 0.453125 0.28125 0.984375q0 0.484375 -0.265625 0.890625q-0.265625 0.40625 -0.78125 0.65625q0.671875 0.15625 1.046875 0.65625q0.375 0.484375 0.375 1.21875q0 1.0 -0.734375 1.703125q-0.71875 0.6875 -1.828125 0.6875q-1.0 0 -1.671875 -0.59375q-0.65625 -0.609375 -0.75 -1.5625zm6.7858734 4.265625l-0.671875 0q1.5625 -2.5 1.5625 -5.0q0 -0.984375 -0.21875 -1.953125q-0.1875 -0.78125 -0.5 -1.5q-0.203125 -0.46875 -0.84375 -1.5625l0.671875 0q0.984375 1.3125 1.453125 2.625q0.390625 1.140625 0.390625 2.375q0 1.40625 -0.53125 2.71875q-0.53125 1.3125 -1.3125 2.296875z" fill-rule="nonzero"/><path fill="#000000" fill-opacity="0.0" d="m192.4279 22.946524l49.858276 0l0 32.314964l-49.858276 0z" fill-rule="evenodd"/><path fill="#000000" d="m205.35298 44.436523q-0.78125 -0.984375 -1.328125 -2.296875q-0.53125 -1.3125 -0.53125 -2.71875q0 -1.234375 0.40625 -2.375q0.46875 -1.3125 1.453125 -2.625l0.65625 0q-0.625 1.09375 -0.828125 1.546875q-0.3125 0.71875 -0.5 1.5q-0.21875 0.984375 -0.21875 1.96875q0 2.5 1.546875 5.0l-0.65625 0zm5.0173645 -2.25l-0.9375 0l0 -5.96875q-0.34375 0.328125 -0.890625 0.65625q-0.546875 0.3125 -0.984375 0.46875l0 -0.90625q0.796875 -0.359375 1.375 -0.890625q0.59375 -0.53125 0.828125 -1.015625l0.609375 0l0 7.65625zm3.2702484 2.25l-0.671875 0q1.5625 -2.5 1.5625 -5.0q0 -0.984375 -0.21875 -1.953125q-0.1875 -0.78125 -0.5 -1.5q-0.203125 -0.46875 -0.84375 -1.5625l0.671875 0q0.984375 1.3125 1.453125 2.625q0.390625 1.140625 0.390625 2.375q0 1.40625 -0.53125 2.71875q-0.53125 1.3125 -1.3125 2.296875zm7.696762 0q-0.78125 -0.984375 -1.328125 -2.296875q-0.53125 -1.3125 -0.53125 -2.71875q0 -1.234375 0.40625 -2.375q0.46875 -1.3125 1.453125 -2.625l0.65625 0q-0.625 1.09375 -0.828125 1.546875q-0.3125 0.71875 -0.5 1.5q-0.21875 0.984375 -0.21875 1.96875q0 2.5 1.546875 5.0l-0.65625 0zm1.5017395 -4.265625l0.9375 -0.125q0.15625 0.796875 0.546875 1.15625q0.390625 0.34375 0.9375 0.34375q0.65625 0 1.109375 -0.453125q0.46875 -0.46875 0.46875 -1.140625q0 -0.640625 -0.421875 -1.0625q-0.421875 -0.421875 -1.078125 -0.421875q-0.265625 0 -0.65625 0.109375l0.109375 -0.828125q0.09375 0.015625 0.140625 0.015625q0.59375 0 1.078125 -0.3125q0.484375 -0.3125 0.484375 -0.96875q0 -0.515625 -0.359375 -0.84375q-0.34375 -0.34375 -0.890625 -0.34375q-0.546875 0 -0.921875 0.34375q-0.359375 0.34375 -0.453125 1.03125l-0.9375 -0.171875q0.171875 -0.9375 0.78125 -1.453125q0.609375 -0.515625 1.5 -0.515625q0.625 0 1.15625 0.265625q0.53125 0.265625 0.796875 0.734375q0.28125 0.453125 0.28125 0.984375q0 0.484375 -0.265625 0.890625q-0.265625 0.40625 -0.78125 0.65625q0.671875 0.15625 1.046875 0.65625q0.375 0.484375 0.375 1.21875q0 1.0 -0.734375 1.703125q-0.71875 0.6875 -1.828125 0.6875q-1.0 0 -1.671875 -0.59375q-0.65625 -0.609375 -0.75 -1.5625zm6.7858734 4.265625l-0.671875 0q1.5625 -2.5 1.5625 -5.0q0 -0.984375 -0.21875 -1.953125q-0.1875 -0.78125 -0.5 -1.5q-0.203125 -0.46875 -0.84375 -1.5625l0.671875 0q0.984375 1.3125 1.453125 2.625q0.390625 1.140625 0.390625 2.375q0 1.40625 -0.53125 2.71875q-0.53125 1.3125 -1.3125 2.296875z" fill-rule="nonzero"/><path fill="#000000" fill-opacity="0.0" d="m80.4279 22.946524l49.921265 0l0 32.314964l-49.921265 0z" fill-rule="evenodd"/><path fill="#000000" d="m93.38448 44.436523q-0.78125 -0.984375 -1.328125 -2.296875q-0.53125 -1.3125 -0.53125 -2.71875q0 -1.234375 0.40625 -2.375q0.46875 -1.3125 1.453125 -2.625l0.65625 0q-0.625 1.09375 -0.828125 1.546875q-0.3125 0.71875 -0.5 1.5q-0.21875 0.984375 -0.21875 1.96875q0 2.5 1.546875 5.0l-0.65625 0zm6.4079895 -3.15625l0 0.90625l-5.03125 0q-0.015625 -0.34375 0.109375 -0.65625q0.1875 -0.515625 0.609375 -1.015625q0.421875 -0.5 1.234375 -1.140625q1.234375 -1.03125 1.671875 -1.625q0.4375 -0.59375 0.4375 -1.125q0 -0.5625 -0.40625 -0.9375q-0.390625 -0.390625 -1.03125 -0.390625q-0.671875 0 -1.078125 0.40625q-0.40625 0.40625 -0.40625 1.125l-0.96875 -0.09375q0.09375 -1.078125 0.734375 -1.640625q0.65625 -0.5625 1.734375 -0.5625q1.109375 0 1.75 0.609375q0.640625 0.609375 0.640625 1.5q0 0.46875 -0.1875 0.90625q-0.1875 0.4375 -0.625 0.9375q-0.4375 0.484375 -1.453125 1.328125q-0.828125 0.71875 -1.078125 0.96875q-0.234375 0.25 -0.390625 0.5l3.734375 0zm1.8796234 3.15625l-0.671875 0q1.5625 -2.5 1.5625 -5.0q0 -0.984375 -0.21875 -1.953125q-0.1875 -0.78125 -0.5 -1.5q-0.203125 -0.46875 -0.84375 -1.5625l0.671875 0q0.984375 1.3125 1.453125 2.625q0.390625 1.140625 0.390625 2.375q0 1.40625 -0.53125 2.71875q-0.53125 1.3125 -1.3125 2.296875zm7.696762 0q-0.78125 -0.984375 -1.328125 -2.296875q-0.53125 -1.3125 -0.53125 -2.71875q0 -1.234375 0.40625 -2.375q0.46875 -1.3125 1.453125 -2.625l0.65625 0q-0.625 1.09375 -0.828125 1.546875q-0.3125 0.71875 -0.5 1.5q-0.21875 0.984375 -0.21875 1.96875q0 2.5 1.546875 5.0l-0.65625 0zm4.4861145 -2.25l0 -1.828125l-3.296875 0l0 -0.859375l3.46875 -4.9375l0.765625 0l0 4.9375l1.03125 0l0 0.859375l-1.03125 0l0 1.828125l-0.9375 0zm0 -2.6875l0 -3.4375l-2.375 3.4375l2.375 0zm3.8014984 4.9375l-0.671875 0q1.5625 -2.5 1.5625 -5.0q0 -0.984375 -0.21875 -1.953125q-0.1875 -0.78125 -0.5 -1.5q-0.203125 -0.46875 -0.84375 -1.5625l0.671875 0q0.984375 1.3125 1.453125 2.625q0.390625 1.140625 0.390625 2.375q0 1.40625 -0.53125 2.71875q-0.53125 1.3125 -1.3125 2.296875z" fill-rule="nonzero"/><path fill="#000000" fill-opacity="0.0" d="m192.4279 83.06301l49.921265 0l0 32.314957l-49.921265 0z" fill-rule="evenodd"/><path fill="#000000" d="m205.38448 104.55301q-0.78125 -0.984375 -1.328125 -2.296875q-0.53125 -1.3125 -0.53125 -2.71875q0 -1.234375 0.40625 -2.375q0.46875 -1.3125 1.453125 -2.625l0.65625 0q-0.625 1.09375 -0.828125 1.546875q-0.3125 0.71875 -0.5 1.5q-0.21875 0.984375 -0.21875 1.96875q0 2.5 1.546875 5.0l-0.65625 0zm6.4079895 -3.15625l0 0.90625l-5.03125 0q-0.015625 -0.34375 0.109375 -0.65625q0.1875 -0.515625 0.609375 -1.015625q0.421875 -0.5 1.234375 -1.140625q1.234375 -1.03125 1.671875 -1.625q0.4375 -0.59375 0.4375 -1.125q0 -0.5625 -0.40625 -0.9375q-0.390625 -0.390625 -1.03125 -0.390625q-0.671875 0 -1.078125 0.40625q-0.40625 0.40625 -0.40625 1.125l-0.96875 -0.09375q0.09375 -1.078125 0.734375 -1.640625q0.65625 -0.5625 1.734375 -0.5625q1.109375 0 1.75 0.609375q0.640625 0.609375 0.640625 1.5q0 0.46875 -0.1875 0.90625q-0.1875 0.4375 -0.625 0.9375q-0.4375 0.484375 -1.453125 1.328125q-0.828125 0.71875 -1.078125 0.96875q-0.234375 0.25 -0.390625 0.5l3.734375 0zm1.8796234 3.15625l-0.671875 0q1.5625 -2.5 1.5625 -5.0q0 -0.984375 -0.21875 -1.953125q-0.1875 -0.78125 -0.5 -1.5q-0.203125 -0.46875 -0.84375 -1.5625l0.671875 0q0.984375 1.3125 1.453125 2.625q0.390625 1.140625 0.390625 2.375q0 1.40625 -0.53125 2.71875q-0.53125 1.3125 -1.3125 2.296875zm7.696762 0q-0.78125 -0.984375 -1.328125 -2.296875q-0.53125 -1.3125 -0.53125 -2.71875q0 -1.234375 0.40625 -2.375q0.46875 -1.3125 1.453125 -2.625l0.65625 0q-0.625 1.09375 -0.828125 1.546875q-0.3125 0.71875 -0.5 1.5q-0.21875 0.984375 -0.21875 1.96875q0 2.5 1.546875 5.0l-0.65625 0zm4.4861145 -2.25l0 -1.828125l-3.296875 0l0 -0.859375l3.46875 -4.9375l0.765625 0l0 4.9375l1.03125 0l0 0.859375l-1.03125 0l0 1.828125l-0.9375 0zm0 -2.6875l0 -3.4375l-2.375 3.4375l2.375 0zm3.8014984 4.9375l-0.671875 0q1.5625 -2.5 1.5625 -5.0q0 -0.984375 -0.21875 -1.953125q-0.1875 -0.78125 -0.5 -1.5q-0.203125 -0.46875 -0.84375 -1.5625l0.671875 0q0.984375 1.3125 1.453125 2.625q0.390625 1.140625 0.390625 2.375q0 1.40625 -0.53125 2.71875q-0.53125 1.3125 -1.3125 2.296875z" fill-rule="nonzero"/><path fill="#000000" fill-opacity="0.0" d="m79.20338 104.88059c14.725342 4.2855606 59.700584 21.1484 88.35204 25.713356c28.651459 4.5649567 69.630554 1.3969879 83.55667 1.6763916" fill-rule="evenodd"/><path stroke="#cc0000" stroke-width="4.0" stroke-linejoin="round" stroke-linecap="butt" d="m79.20338 104.880585c14.725334 4.285568 59.700584 21.148407 88.35204 25.713364c14.325729 2.2824707 31.733383 2.6317291 47.30034 2.445282c7.783493 -0.0932312 15.106796 -0.32037354 21.35463 -0.5067444l1.195221 -0.034576416" fill-rule="evenodd"/><path fill="#cc0000" stroke="#cc0000" stroke-width="4.0" stroke-linecap="butt" d="m237.40562 132.49791l-4.4230347 4.5723877l12.282684 -4.702881l-12.432037 -4.2925415z" fill-rule="evenodd"/><path fill="#000000" fill-opacity="0.0" d="m78.402824 35.357132c14.912628 -3.5763645 60.640312 -18.268618 89.475746 -21.458199c28.835419 -3.18958 69.61401 1.9339333 83.53682 2.3207197" fill-rule="evenodd"/><path stroke="#cc0000" stroke-width="4.0" stroke-linejoin="round" stroke-linecap="butt" d="m78.402824 35.357136c14.912628 -3.5763683 60.640312 -18.268621 89.475746 -21.458202c14.417709 -1.5947905 31.821213 -1.1113062 47.36064 -0.1807766c7.7697296 0.46526432 15.07341 1.0422897 21.304855 1.527175l1.1914368 0.09161854" fill-rule="evenodd"/><path fill="#cc0000" stroke="#cc0000" stroke-width="4.0" stroke-linecap="butt" d="m237.7355 15.33695l-4.778656 4.1993427l12.623077 -3.6931763l-12.043777 -5.2848206z" fill-rule="evenodd"/></g></svg>