<svg version="1.1" viewBox="0.0 0.0 693.3989501312336 145.8005249343832" fill="none" stroke="none" stroke-linecap="square" stroke-miterlimit="10" xmlns:xlink="http://www.w3.org/1999/xlink" xmlns="http://www.w3.org/2000/svg"><clipPath id="p.0"><path d="m0 0l693.3989 0l0 145.80052l-693.3989 0l0 -145.80052z" clip-rule="nonzero"/></clipPath><g clip-path="url(#p.0)"><path fill="#000000" fill-opacity="0.0" d="m0 0l693.3989 0l0 145.80052l-693.3989 0z" fill-rule="evenodd"/><path fill="#ffffff" fill-opacity="0.6" d="m-0.1312336 -24.131233l697.5433 0l0 186.92914l-697.5433 0z" fill-rule="evenodd"/><path fill="#000000" d="m323.7101 70.34121l0 0c0 -14.829063 -12.021332 -26.850395 -26.850403 -26.850395l0 0c-7.121155 0 -13.950653 2.8288727 -18.986084 7.864296c-5.035431 5.035427 -7.8642883 11.864929 -7.8642883 18.9861l0 0c0 14.829063 12.021332 26.850395 26.850372 26.850395l0 0c14.829071 0 26.850403 -12.021332 26.850403 -26.850395z" fill-rule="evenodd"/><path stroke="#000000" stroke-width="1.0" stroke-linejoin="round" stroke-linecap="butt" d="m323.7101 70.34121l0 0c0 -14.829063 -12.021332 -26.850395 -26.850403 -26.850395l0 0c-7.121155 0 -13.950653 2.8288727 -18.986084 7.864296c-5.035431 5.035427 -7.8642883 11.864929 -7.8642883 18.9861l0 0c0 14.829063 12.021332 26.850395 26.850372 26.850395l0 0c14.829071 0 26.850403 -12.021332 26.850403 -26.850395z" fill-rule="evenodd"/><path fill="#ffffff" d="m288.14142 74.17308l4.125 -0.40625q0.375 2.078125 1.5 3.0625q1.140625 0.96875 3.078125 0.96875q2.046875 0 3.078125 -0.859375q1.046875 -0.875 1.046875 -2.03125q0 -0.75 -0.4375 -1.265625q-0.4375 -0.53125 -1.53125 -0.921875q-0.734375 -0.25 -3.390625 -0.90625q-3.40625 -0.84375 -4.78125 -2.078125q-1.9375 -1.734375 -1.9375 -4.234375q0 -1.59375 0.90625 -2.984375q0.921875 -1.40625 2.625 -2.140625q1.71875 -0.734375 4.140625 -0.734375q3.953125 0 5.9375 1.734375q2.0 1.734375 2.109375 4.625l-4.234375 0.1875q-0.28125 -1.609375 -1.171875 -2.3125q-0.890625 -0.71875 -2.6875 -0.71875q-1.84375 0 -2.890625 0.765625q-0.671875 0.484375 -0.671875 1.296875q0 0.75 0.625 1.28125q0.796875 0.671875 3.890625 1.40625q3.09375 0.71875 4.578125 1.5q1.484375 0.78125 2.3125 2.140625q0.84375 1.34375 0.84375 3.34375q0 1.796875 -1.0 3.375q-1.0 1.578125 -2.84375 2.34375q-1.828125 0.765625 -4.5625 0.765625q-3.96875 0 -6.109375 -1.84375q-2.140625 -1.84375 -2.546875 -5.359375z" fill-rule="nonzero"/><path fill="#000000" fill-opacity="0.0" d="m277.87363 51.35511l-15.370087 -26.23622" fill-rule="evenodd"/><path stroke="#000000" stroke-width="8.0" stroke-linejoin="round" stroke-linecap="butt" d="m277.87363 51.35511l-15.370087 -26.23622" fill-rule="evenodd"/><path fill="#000000" fill-opacity="0.0" d="m277.87363 89.11889l-15.370087 26.236221" fill-rule="evenodd"/><path stroke="#000000" stroke-width="8.0" stroke-linejoin="round" stroke-linecap="butt" d="m277.87363 89.11889l-15.370087 26.236221" fill-rule="evenodd"/><path fill="#000000" fill-opacity="0.0" d="m262.84525 11.535433l32.251953 0l0 32.314964l-32.251953 0z" fill-rule="evenodd"/><path fill="#000000" d="m272.689 30.775433l0 -7.625l3.375 0q1.015625 0 1.546875 0.203125q0.53125 0.203125 0.84375 0.734375q0.328125 0.515625 0.328125 1.140625q0 0.8125 -0.53125 1.375q-0.515625 0.546875 -1.625 0.703125q0.40625 0.1875 0.609375 0.375q0.453125 0.40625 0.84375 1.015625l1.328125 2.078125l-1.265625 0l-1.015625 -1.59375q-0.4375 -0.6875 -0.734375 -1.046875q-0.28125 -0.359375 -0.515625 -0.5q-0.21875 -0.15625 -0.453125 -0.203125q-0.171875 -0.046875 -0.5625 -0.046875l-1.171875 0l0 3.390625l-1.0 0zm1.0 -4.265625l2.171875 0q0.6875 0 1.078125 -0.140625q0.390625 -0.140625 0.59375 -0.453125q0.203125 -0.3125 0.203125 -0.6875q0 -0.546875 -0.390625 -0.890625q-0.390625 -0.34375 -1.234375 -0.34375l-2.421875 0l0 2.515625z" fill-rule="nonzero"/><path fill="#000000" fill-opacity="0.0" d="m262.84525 96.81589l32.251953 0l0 32.314957l-32.251953 0z" fill-rule="evenodd"/><path fill="#000000" d="m272.6265 116.055885l0 -7.625l1.015625 0l0 6.71875l3.75 0l0 0.90625l-4.765625 0z" fill-rule="nonzero"/><path fill="#000000" d="m4.805581 70.34121l0 0c0 -14.829063 12.021331 -26.850395 26.850395 -26.850395l0 0c7.121166 0 13.950668 2.8288727 18.986095 7.864296c5.0354233 5.035427 7.864296 11.864929 7.864296 18.9861l0 0c0 14.829063 -12.021328 26.850395 -26.850391 26.850395l0 0c-14.829063 0 -26.850395 -12.021332 -26.850395 -26.850395z" fill-rule="evenodd"/><path stroke="#000000" stroke-width="1.0" stroke-linejoin="round" stroke-linecap="butt" d="m4.805581 70.34121l0 0c0 -14.829063 12.021331 -26.850395 26.850395 -26.850395l0 0c7.121166 0 13.950668 2.8288727 18.986095 7.864296c5.0354233 5.035427 7.864296 11.864929 7.864296 18.9861l0 0c0 14.829063 -12.021328 26.850395 -26.850391 26.850395l0 0c-14.829063 0 -26.850395 -12.021332 -26.850395 -26.850395z" fill-rule="evenodd"/><path fill="#ffffff" d="m29.557953 81.001205l0 -17.4375l-6.234375 0l0 -3.5625l16.6875 0l0 3.5625l-6.21875 0l0 17.4375l-4.234375 0z" fill-rule="nonzero"/><path fill="#000000" fill-opacity="0.0" d="m50.64207 51.35511l15.370075 -26.23622" fill-rule="evenodd"/><path stroke="#000000" stroke-width="8.0" stroke-linejoin="round" stroke-linecap="butt" d="m50.64207 51.35511l15.370075 -26.23622" fill-rule="evenodd"/><path fill="#000000" fill-opacity="0.0" d="m50.64207 89.11889l15.370075 26.236221" fill-rule="evenodd"/><path stroke="#000000" stroke-width="8.0" stroke-linejoin="round" stroke-linecap="butt" d="m50.64207 89.11889l15.370075 26.236221" fill-rule="evenodd"/><path fill="#000000" fill-opacity="0.0" d="m71.6308 11.535433l-32.25197 0l0 32.314964l32.25197 0z" fill-rule="evenodd"/><path fill="#000000" d="m49.16008 30.775433l0 -7.625l1.015625 0l0 6.71875l3.75 0l0 0.90625l-4.765625 0z" fill-rule="nonzero"/><path fill="#000000" fill-opacity="0.0" d="m71.6308 96.81589l-32.25197 0l0 32.314957l32.25197 0z" fill-rule="evenodd"/><path fill="#000000" d="m49.22258 116.055885l0 -7.625l3.375 0q1.015625 0 1.546875 0.203125q0.53125 0.203125 0.84375 0.734375q0.328125 0.515625 0.328125 1.140625q0 0.8125 -0.53125 1.375q-0.515625 0.546875 -1.625 0.703125q0.40625 0.1875 0.609375 0.375q0.453125 0.40625 0.84375 1.015625l1.328125 2.078125l-1.265625 0l-1.015625 -1.59375q-0.4375 -0.6875 -0.734375 -1.046875q-0.28125 -0.359375 -0.515625 -0.5q-0.21875 -0.15625 -0.453125 -0.203125q-0.171875 -0.046875 -0.5625 -0.046875l-1.171875 0l0 3.390625l-1.0 0zm1.0 -4.265625l2.171875 0q0.6875 0 1.078125 -0.140625q0.390625 -0.140625 0.59375 -0.453125q0.203125 -0.3125 0.203125 -0.6875q0 -0.546875 -0.390625 -0.890625q-0.390625 -0.34375 -1.234375 -0.34375l-2.421875 0l0 2.515625z" fill-rule="nonzero"/><path fill="#000000" fill-opacity="0.0" d="m251.4462 11.170825c-15.184174 -0.7719469 -62.096237 -4.4691668 -91.104996 -4.631682c-29.008743 -0.16251469 -69.12292 3.0471587 -82.9475 3.656591" fill-rule="evenodd"/><path stroke="#cc0000" stroke-width="4.0" stroke-linejoin="round" stroke-linecap="butt" d="m251.4462 11.170824c-15.184158 -0.77194595 -62.096237 -4.469166 -91.104996 -4.631681c-14.504364 -0.08125687 -31.785095 0.680532 -47.16781 1.538815c-7.691353 0.429142 -14.9081955 0.8824072 -21.066254 1.2664757l-1.0277328 0.06375313" fill-rule="evenodd"/><path fill="#cc0000" stroke="#cc0000" stroke-width="4.0" stroke-linecap="butt" d="m91.07941 9.408187l4.2324753 -4.7493343l-12.080231 5.2009354l12.597092 3.7808743z" fill-rule="evenodd"/><path fill="#000000" fill-opacity="0.0" d="m251.4462 107.17082c-15.184174 -0.77194214 -62.096237 -4.469162 -91.104996 -4.6316757c-29.008743 -0.16252136 -69.12292 3.0471573 -82.9475 3.6565857" fill-rule="evenodd"/><path stroke="#cc0000" stroke-width="4.0" stroke-linejoin="round" stroke-linecap="butt" d="m251.4462 107.17083c-15.184158 -0.77194977 -62.096237 -4.4691696 -91.104996 -4.6316833c-14.504364 -0.08126068 -31.785095 0.68052673 -47.16781 1.5388107c-7.691353 0.4291458 -14.9081955 0.88240814 -21.066254 1.2664795l-1.0277328 0.06375122" fill-rule="evenodd"/><path fill="#cc0000" stroke="#cc0000" stroke-width="4.0" stroke-linecap="butt" d="m91.07941 105.40819l4.2324753 -4.7493362l-12.080231 5.2009354l12.597092 3.7808762z" fill-rule="evenodd"/><path fill="#000000" fill-opacity="0.0" d="m77.3937 126.49867c15.184166 0.77194214 62.096245 4.469162 91.10499 4.6316833c29.008743 0.1625061 69.122925 -3.047165 82.94751 -3.6565933" fill-rule="evenodd"/><path stroke="#cc0000" stroke-width="4.0" stroke-linejoin="round" stroke-linecap="butt" d="m77.3937 126.498665c15.184166 0.77194977 62.096245 4.4691696 91.10499 4.631691c14.504395 0.08125305 31.78511 -0.68052673 47.167816 -1.5388184c7.6913605 -0.42915344 14.908218 -0.8824005 21.066254 -1.2664795l1.0277405 -0.06375122" fill-rule="evenodd"/><path fill="#cc0000" stroke="#cc0000" stroke-width="4.0" stroke-linecap="butt" d="m237.76048 128.2613l-4.2324677 4.7493286l12.080231 -5.2009277l-12.597092 -3.7808762z" fill-rule="evenodd"/><path fill="#000000" fill-opacity="0.0" d="m77.3937 30.49867c15.184166 0.77194786 62.096245 4.4691677 91.10499 4.6316814c29.008743 0.16251755 69.122925 -3.0471573 82.94751 -3.6565895" fill-rule="evenodd"/><path stroke="#cc0000" stroke-width="4.0" stroke-linejoin="round" stroke-linecap="butt" d="m77.3937 30.498672c15.184166 0.77194595 62.096245 4.469166 91.10499 4.6316795c14.504395 0.08125687 31.78511 -0.68053055 47.167816 -1.5388145c7.6913605 -0.429142 14.908218 -0.88240814 21.066254 -1.2664757l1.0277405 -0.063755035" fill-rule="evenodd"/><path fill="#cc0000" stroke="#cc0000" stroke-width="4.0" stroke-linecap="butt" d="m237.76048 32.26131l-4.2324677 4.7493324l12.080231 -5.2009354l-12.597092 -3.7808723z" fill-rule="evenodd"/><path fill="#000000" d="m671.71014 70.34121l0 0c0 -14.829063 -12.021362 -26.850395 -26.850403 -26.850395l0 0c-7.121155 0 -13.950684 2.8288727 -18.986084 7.864296c-5.0354614 5.035427 -7.864319 11.864929 -7.864319 18.9861l0 0c0 14.829063 12.021301 26.850395 26.850403 26.850395l0 0c14.829041 0 26.850403 -12.021332 26.850403 -26.850395z" fill-rule="evenodd"/><path stroke="#000000" stroke-width="1.0" stroke-linejoin="round" stroke-linecap="butt" d="m671.71014 70.34121l0 0c0 -14.829063 -12.021362 -26.850395 -26.850403 -26.850395l0 0c-7.121155 0 -13.950684 2.8288727 -18.986084 7.864296c-5.0354614 5.035427 -7.864319 11.864929 -7.864319 18.9861l0 0c0 14.829063 12.021301 26.850395 26.850403 26.850395l0 0c14.829041 0 26.850403 -12.021332 26.850403 -26.850395z" fill-rule="evenodd"/><path fill="#ffffff" d="m636.1414 74.17308l4.125 -0.40625q0.375 2.078125 1.5 3.0625q1.140625 0.96875 3.078125 0.96875q2.046875 0 3.078125 -0.859375q1.046875 -0.875 1.046875 -2.03125q0 -0.75 -0.4375 -1.265625q-0.4375 -0.53125 -1.53125 -0.921875q-0.734375 -0.25 -3.390625 -0.90625q-3.40625 -0.84375 -4.78125 -2.078125q-1.9375 -1.734375 -1.9375 -4.234375q0 -1.59375 0.90625 -2.984375q0.921875 -1.40625 2.625 -2.140625q1.71875 -0.734375 4.140625 -0.734375q3.953125 0 5.9375 1.734375q2.0 1.734375 2.109375 4.625l-4.234375 0.1875q-0.28125 -1.609375 -1.171875 -2.3125q-0.890625 -0.71875 -2.6875 -0.71875q-1.84375 0 -2.890625 0.765625q-0.671875 0.484375 -0.671875 1.296875q0 0.75 0.625 1.28125q0.796875 0.671875 3.890625 1.40625q3.09375 0.71875 4.578125 1.5q1.484375 0.78125 2.3125 2.140625q0.84375 1.34375 0.84375 3.34375q0 1.796875 -1.0 3.375q-1.0 1.578125 -2.84375 2.34375q-1.828125 0.765625 -4.5625 0.765625q-3.96875 0 -6.109375 -1.84375q-2.140625 -1.84375 -2.546875 -5.359375z" fill-rule="nonzero"/><path fill="#000000" fill-opacity="0.0" d="m625.87366 51.35511l-15.370117 -26.23622" fill-rule="evenodd"/><path stroke="#000000" stroke-width="8.0" stroke-linejoin="round" stroke-linecap="butt" d="m625.87366 51.35511l-15.370117 -26.23622" fill-rule="evenodd"/><path fill="#000000" fill-opacity="0.0" d="m625.87366 89.11889l-15.370117 26.236221" fill-rule="evenodd"/><path stroke="#000000" stroke-width="8.0" stroke-linejoin="round" stroke-linecap="butt" d="m625.87366 89.11889l-15.370117 26.236221" fill-rule="evenodd"/><path fill="#000000" fill-opacity="0.0" d="m610.8452 11.535433l32.252014 0l0 32.314964l-32.252014 0z" fill-rule="evenodd"/><path fill="#000000" d="m620.68896 30.775433l0 -7.625l3.375 0q1.015625 0 1.546875 0.203125q0.53125 0.203125 0.84375 0.734375q0.328125 0.515625 0.328125 1.140625q0 0.8125 -0.53125 1.375q-0.515625 0.546875 -1.625 0.703125q0.40625 0.1875 0.609375 0.375q0.453125 0.40625 0.84375 1.015625l1.328125 2.078125l-1.265625 0l-1.015625 -1.59375q-0.4375 -0.6875 -0.734375 -1.046875q-0.28125 -0.359375 -0.515625 -0.5q-0.21875 -0.15625 -0.453125 -0.203125q-0.171875 -0.046875 -0.5625 -0.046875l-1.171875 0l0 3.390625l-1.0 0zm1.0 -4.265625l2.171875 0q0.6875 0 1.078125 -0.140625q0.390625 -0.140625 0.59375 -0.453125q0.203125 -0.3125 0.203125 -0.6875q0 -0.546875 -0.390625 -0.890625q-0.390625 -0.34375 -1.234375 -0.34375l-2.421875 0l0 2.515625z" fill-rule="nonzero"/><path fill="#000000" fill-opacity="0.0" d="m610.8452 96.81589l32.252014 0l0 32.314957l-32.252014 0z" fill-rule="evenodd"/><path fill="#000000" d="m620.62646 116.055885l0 -7.625l1.015625 0l0 6.71875l3.75 0l0 0.90625l-4.765625 0z" fill-rule="nonzero"/><path fill="#000000" d="m352.80557 70.34121l0 0c0 -14.829063 12.021332 -26.850395 26.850403 -26.850395l0 0c7.121155 0 13.950684 2.8288727 18.986084 7.864296c5.035431 5.035427 7.864319 11.864929 7.864319 18.9861l0 0c0 14.829063 -12.021332 26.850395 -26.850403 26.850395l0 0c-14.829071 0 -26.850403 -12.021332 -26.850403 -26.850395z" fill-rule="evenodd"/><path stroke="#000000" stroke-width="1.0" stroke-linejoin="round" stroke-linecap="butt" d="m352.80557 70.34121l0 0c0 -14.829063 12.021332 -26.850395 26.850403 -26.850395l0 0c7.121155 0 13.950684 2.8288727 18.986084 7.864296c5.035431 5.035427 7.864319 11.864929 7.864319 18.9861l0 0c0 14.829063 -12.021332 26.850395 -26.850403 26.850395l0 0c-14.829071 0 -26.850403 -12.021332 -26.850403 -26.850395z" fill-rule="evenodd"/><path fill="#ffffff" d="m377.55795 81.001205l0 -17.4375l-6.234375 0l0 -3.5625l16.6875 0l0 3.5625l-6.21875 0l0 17.4375l-4.234375 0z" fill-rule="nonzero"/><path fill="#000000" fill-opacity="0.0" d="m398.64206 51.35511l15.370087 -26.23622" fill-rule="evenodd"/><path stroke="#000000" stroke-width="8.0" stroke-linejoin="round" stroke-linecap="butt" d="m398.64206 51.35511l15.370087 -26.23622" fill-rule="evenodd"/><path fill="#000000" fill-opacity="0.0" d="m398.64206 89.11889l15.370087 26.236221" fill-rule="evenodd"/><path stroke="#000000" stroke-width="8.0" stroke-linejoin="round" stroke-linecap="butt" d="m398.64206 89.11889l15.370087 26.236221" fill-rule="evenodd"/><path fill="#000000" fill-opacity="0.0" d="m419.6308 11.535433l-32.251953 0l0 32.314964l32.251953 0z" fill-rule="evenodd"/><path fill="#000000" d="m397.1601 30.775433l0 -7.625l1.015625 0l0 6.71875l3.75 0l0 0.90625l-4.765625 0z" fill-rule="nonzero"/><path fill="#000000" fill-opacity="0.0" d="m419.6308 96.81589l-32.251953 0l0 32.314957l32.251953 0z" fill-rule="evenodd"/><path fill="#000000" d="m397.2226 116.055885l0 -7.625l3.375 0q1.015625 0 1.546875 0.203125q0.53125 0.203125 0.84375 0.734375q0.328125 0.515625 0.328125 1.140625q0 0.8125 -0.53125 1.375q-0.515625 0.546875 -1.625 0.703125q0.40625 0.1875 0.609375 0.375q0.453125 0.40625 0.84375 1.015625l1.328125 2.078125l-1.265625 0l-1.015625 -1.59375q-0.4375 -0.6875 -0.734375 -1.046875q-0.28125 -0.359375 -0.515625 -0.5q-0.21875 -0.15625 -0.453125 -0.203125q-0.171875 -0.046875 -0.5625 -0.046875l-1.171875 0l0 3.390625l-1.0 0zm1.0 -4.265625l2.171875 0q0.6875 0 1.078125 -0.140625q0.390625 -0.140625 0.59375 -0.453125q0.203125 -0.3125 0.203125 -0.6875q0 -0.546875 -0.390625 -0.890625q-0.390625 -0.34375 -1.234375 -0.34375l-2.421875 0l0 2.515625z" fill-rule="nonzero"/><path fill="#000000" fill-opacity="0.0" d="m425.3937 11.170825c15.184143 -0.7719469 62.096222 -4.4691668 91.10495 -4.631682c29.00879 -0.16251469 69.122925 3.0471587 82.94751 3.656591" fill-rule="evenodd"/><path stroke="#cc0000" stroke-width="4.0" stroke-linejoin="round" stroke-linecap="butt" d="m425.3937 11.170824c15.184174 -0.77194595 62.096252 -4.469166 91.10495 -4.631681c14.504395 -0.08125687 31.785156 0.680532 47.167847 1.538815c7.691345 0.429142 14.908203 0.8824072 21.066223 1.2664757l1.027771 0.06375408" fill-rule="evenodd"/><path fill="#cc0000" stroke="#cc0000" stroke-width="4.0" stroke-linecap="butt" d="m585.7605 9.408188l-4.7493286 4.2324743l12.597046 -3.7808743l-12.0802 -5.200935z" fill-rule="evenodd"/><path fill="#000000" fill-opacity="0.0" d="m425.3937 107.17082c15.184143 -0.77194214 62.096222 -4.469162 91.10495 -4.6316757c29.00879 -0.16252136 69.122925 3.0471573 82.94751 3.6565857" fill-rule="evenodd"/><path stroke="#cc0000" stroke-width="4.0" stroke-linejoin="round" stroke-linecap="butt" d="m425.3937 107.17083c15.184174 -0.77194977 62.096252 -4.4691696 91.10495 -4.6316833c14.504395 -0.08126068 31.785156 0.68052673 47.167847 1.5388107c7.691345 0.4291458 14.908203 0.88240814 21.066223 1.2664795l1.027771 0.06375122" fill-rule="evenodd"/><path fill="#cc0000" stroke="#cc0000" stroke-width="4.0" stroke-linecap="butt" d="m585.7605 105.40819l-4.7493286 4.2324753l12.597046 -3.7808762l-12.0802 -5.2009354z" fill-rule="evenodd"/><path fill="#000000" fill-opacity="0.0" d="m599.44617 126.49867c-15.184143 0.77194214 -62.09619 4.469162 -91.10495 4.6316833c-29.008759 0.1625061 -69.122925 -3.047165 -82.94751 -3.6565933" fill-rule="evenodd"/><path stroke="#cc0000" stroke-width="4.0" stroke-linejoin="round" stroke-linecap="butt" d="m599.44617 126.498665c-15.184143 0.77194977 -62.096252 4.4691696 -91.10495 4.631691c-14.504364 0.08125305 -31.785126 -0.68052673 -47.167816 -1.5388184c-7.6913757 -0.42915344 -14.908173 -0.8824005 -21.066254 -1.2664795l-1.0277405 -0.06375122" fill-rule="evenodd"/><path fill="#cc0000" stroke="#cc0000" stroke-width="4.0" stroke-linecap="butt" d="m439.0794 128.2613l4.7493286 -4.2324753l-12.597076 3.7808762l12.080231 5.2009277z" fill-rule="evenodd"/><path fill="#000000" fill-opacity="0.0" d="m599.44617 30.49867c-15.184143 0.77194786 -62.09619 4.4691677 -91.10495 4.6316814c-29.008759 0.16251755 -69.122925 -3.0471573 -82.94751 -3.6565895" fill-rule="evenodd"/><path stroke="#cc0000" stroke-width="4.0" stroke-linejoin="round" stroke-linecap="butt" d="m599.44617 30.498672c-15.184143 0.77194595 -62.096252 4.469166 -91.10495 4.6316795c-14.504364 0.08125687 -31.785126 -0.68053055 -47.167816 -1.5388145c-7.6913757 -0.429142 -14.908173 -0.88240814 -21.066254 -1.2664757l-1.0277405 -0.063755035" fill-rule="evenodd"/><path fill="#cc0000" stroke="#cc0000" stroke-width="4.0" stroke-linecap="butt" d="m439.0794 32.261307l4.7493286 -4.2324734l-12.597076 3.7808743l12.080231 5.2009354z" fill-rule="evenodd"/><path fill="#000000" fill-opacity="0.0" d="m134.0762 52.67618l49.92125 0l0 32.31496l-49.92125 0z" fill-rule="evenodd"/><path fill="#000000" d="m155.02496 74.16618q-0.78125 -0.984375 -1.328125 -2.296875q-0.53125 -1.3125 -0.53125 -2.71875q0 -1.234375 0.40625 -2.375q0.46875 -1.3125 1.453125 -2.625l0.65625 0q-0.625 1.09375 -0.828125 1.546875q-0.3125 0.71875 -0.5 1.5q-0.21875 0.984375 -0.21875 1.96875q0 2.5 1.546875 5.0l-0.65625 0zm5.0173645 -2.25l-0.9375 0l0 -5.96875q-0.34375 0.328125 -0.890625 0.65625q-0.546875 0.3125 -0.984375 0.46875l0 -0.90625q0.796875 -0.359375 1.375 -0.890625q0.59375 -0.53125 0.828125 -1.015625l0.609375 0l0 7.65625zm3.2702484 2.25l-0.671875 0q1.5625 -2.5 1.5625 -5.0q0 -0.984375 -0.21875 -1.953125q-0.1875 -0.78125 -0.5 -1.5q-0.203125 -0.46875 -0.84375 -1.5625l0.671875 0q0.984375 1.3125 1.453125 2.625q0.390625 1.140625 0.390625 2.375q0 1.40625 -0.53125 2.71875q-0.53125 1.3125 -1.3125 2.296875z" fill-rule="nonzero"/><path fill="#000000" fill-opacity="0.0" d="m494.0762 52.67618l49.921234 0l0 32.31496l-49.921234 0z" fill-rule="evenodd"/><path fill="#000000" d="m515.02496 74.16618q-0.78125 -0.984375 -1.328125 -2.296875q-0.53125 -1.3125 -0.53125 -2.71875q0 -1.234375 0.40625 -2.375q0.46875 -1.3125 1.453125 -2.625l0.65625 0q-0.625 1.09375 -0.828125 1.546875q-0.3125 0.71875 -0.5 1.5q-0.21875 0.984375 -0.21875 1.96875q0 2.5 1.546875 5.0l-0.65625 0zm6.407959 -3.15625l0 0.90625l-5.03125 0q-0.015625 -0.34375 0.109375 -0.65625q0.1875 -0.515625 0.609375 -1.015625q0.421875 -0.5 1.234375 -1.140625q1.234375 -1.03125 1.671875 -1.625q0.4375 -0.59375 0.4375 -1.125q0 -0.5625 -0.40625 -0.9375q-0.390625 -0.390625 -1.03125 -0.390625q-0.671875 0 -1.078125 0.40625q-0.40625 0.40625 -0.40625 1.125l-0.96875 -0.09375q0.09375 -1.078125 0.734375 -1.640625q0.65625 -0.5625 1.734375 -0.5625q1.109375 0 1.75 0.609375q0.640625 0.609375 0.640625 1.5q0 0.46875 -0.1875 0.90625q-0.1875 0.4375 -0.625 0.9375q-0.4375 0.484375 -1.453125 1.328125q-0.828125 0.71875 -1.078125 0.96875q-0.234375 0.25 -0.390625 0.5l3.734375 0zm1.8796387 3.15625l-0.671875 0q1.5625 -2.5 1.5625 -5.0q0 -0.984375 -0.21875 -1.953125q-0.1875 -0.78125 -0.5 -1.5q-0.203125 -0.46875 -0.84375 -1.5625l0.671875 0q0.984375 1.3125 1.453125 2.625q0.390625 1.140625 0.390625 2.375q0 1.40625 -0.53125 2.71875q-0.53125 1.3125 -1.3125 2.296875z" fill-rule="nonzero"/></g></svg>